<mxfile host="65bd71144e">
    <diagram id="Vr-9IQ695vBipqRcAQbf" name="Page-1">
        <mxGraphModel dx="669" dy="298" grid="1" gridSize="10" guides="1" tooltips="1" connect="1" arrows="1" fold="1" page="1" pageScale="1" pageWidth="827" pageHeight="1169" math="0" shadow="0">
            <root>
                <mxCell id="0"/>
                <mxCell id="1" parent="0"/>
                <mxCell id="6" value="" style="shape=dataStorage;whiteSpace=wrap;html=1;fixedSize=1;size=10;strokeWidth=3;" parent="1" vertex="1">
                    <mxGeometry x="400" y="130" width="80" height="70" as="geometry"/>
                </mxCell>
                <mxCell id="2" value="" style="shape=cylinder3;whiteSpace=wrap;html=1;boundedLbl=1;backgroundOutline=1;size=0.1912849062964881;strokeWidth=3;" parent="1" vertex="1">
                    <mxGeometry x="350" y="150" width="80" height="60" as="geometry"/>
                </mxCell>
                <mxCell id="3" value="" style="shape=or;whiteSpace=wrap;html=1;rotation=-90;strokeWidth=3;" parent="1" vertex="1">
                    <mxGeometry x="370" y="90" width="40" height="80" as="geometry"/>
                </mxCell>
                <mxCell id="7" value="" style="ellipse;shape=cloud;whiteSpace=wrap;html=1;" parent="1" vertex="1">
                    <mxGeometry x="410" y="70" width="96" height="60" as="geometry"/>
                </mxCell>
                <mxCell id="8" value="" style="shape=flexArrow;endArrow=classic;html=1;strokeWidth=3;" parent="1" edge="1">
                    <mxGeometry width="50" height="50" relative="1" as="geometry">
                        <mxPoint x="596" y="270" as="sourcePoint"/>
                        <mxPoint x="506" y="190" as="targetPoint"/>
                    </mxGeometry>
                </mxCell>
                <mxCell id="10" value="" style="shape=flexArrow;endArrow=classic;html=1;strokeWidth=3;" parent="1" edge="1">
                    <mxGeometry width="50" height="50" relative="1" as="geometry">
                        <mxPoint x="310" y="190" as="sourcePoint"/>
                        <mxPoint x="220" y="270" as="targetPoint"/>
                    </mxGeometry>
                </mxCell>
                <mxCell id="11" value="" style="html=1;whiteSpace=wrap;shape=isoCube2;backgroundOutline=1;isoAngle=15;strokeWidth=2;" parent="1" vertex="1">
                    <mxGeometry x="160" y="300" width="40" height="300" as="geometry"/>
                </mxCell>
                <mxCell id="12" value="" style="html=1;whiteSpace=wrap;shape=isoCube2;backgroundOutline=1;isoAngle=15;strokeWidth=2;" parent="1" vertex="1">
                    <mxGeometry x="160" y="300" width="40" height="30" as="geometry"/>
                </mxCell>
                <mxCell id="14" value="" style="shape=cylinder3;whiteSpace=wrap;html=1;boundedLbl=1;backgroundOutline=1;size=8.37157287597654;strokeWidth=2;" parent="1" vertex="1">
                    <mxGeometry x="165" y="290" width="30" height="30" as="geometry"/>
                </mxCell>
                <mxCell id="13" value="" style="shape=cylinder3;whiteSpace=wrap;html=1;boundedLbl=1;backgroundOutline=1;size=8.37157287597654;strokeWidth=2;" parent="1" vertex="1">
                    <mxGeometry x="160" y="290" width="40" height="20" as="geometry"/>
                </mxCell>
                <mxCell id="15" value="" style="html=1;whiteSpace=wrap;shape=isoCube2;backgroundOutline=1;isoAngle=15;strokeWidth=2;" parent="1" vertex="1">
                    <mxGeometry x="610" y="300" width="40" height="300" as="geometry"/>
                </mxCell>
                <mxCell id="16" value="" style="html=1;whiteSpace=wrap;shape=isoCube2;backgroundOutline=1;isoAngle=15;strokeWidth=2;" parent="1" vertex="1">
                    <mxGeometry x="610" y="300" width="40" height="30" as="geometry"/>
                </mxCell>
                <mxCell id="17" value="" style="shape=cylinder3;whiteSpace=wrap;html=1;boundedLbl=1;backgroundOutline=1;size=8.37157287597654;strokeWidth=2;" parent="1" vertex="1">
                    <mxGeometry x="615" y="290" width="30" height="30" as="geometry"/>
                </mxCell>
                <mxCell id="18" value="" style="shape=cylinder3;whiteSpace=wrap;html=1;boundedLbl=1;backgroundOutline=1;size=8.37157287597654;strokeWidth=2;" parent="1" vertex="1">
                    <mxGeometry x="610" y="290" width="40" height="20" as="geometry"/>
                </mxCell>
                <mxCell id="19" value="&lt;font style=&quot;font-size: 24px&quot;&gt;ОТВС&lt;/font&gt;" style="text;html=1;align=center;verticalAlign=middle;resizable=0;points=[];autosize=1;strokeColor=none;fillColor=none;" parent="1" vertex="1">
                    <mxGeometry x="140" y="620" width="80" height="20" as="geometry"/>
                </mxCell>
                <mxCell id="20" value="&lt;font style=&quot;font-size: 24px&quot;&gt;ТВС&lt;/font&gt;" style="text;html=1;align=center;verticalAlign=middle;resizable=0;points=[];autosize=1;strokeColor=none;fillColor=none;" parent="1" vertex="1">
                    <mxGeometry x="595" y="620" width="60" height="20" as="geometry"/>
                </mxCell>
                <mxCell id="21" value="&lt;span style=&quot;font-size: 24px&quot;&gt;Энергоблок&lt;/span&gt;" style="text;html=1;align=center;verticalAlign=middle;resizable=0;points=[];autosize=1;strokeColor=none;fillColor=none;" parent="1" vertex="1">
                    <mxGeometry x="339" y="220" width="150" height="20" as="geometry"/>
                </mxCell>
                <mxCell id="22" value="&lt;font style=&quot;font-size: 24px&quot;&gt;1 кг&lt;/font&gt;" style="text;html=1;align=center;verticalAlign=middle;resizable=0;points=[];autosize=1;strokeColor=none;fillColor=none;" parent="1" vertex="1">
                    <mxGeometry x="210" y="190" width="50" height="20" as="geometry"/>
                </mxCell>
                <mxCell id="23" value="&lt;font style=&quot;font-size: 24px&quot;&gt;1&amp;nbsp;&lt;/font&gt;&lt;span style=&quot;font-size: 24px&quot;&gt;кг&lt;/span&gt;" style="text;html=1;align=center;verticalAlign=middle;resizable=0;points=[];autosize=1;strokeColor=none;fillColor=none;" parent="1" vertex="1">
                    <mxGeometry x="545" y="190" width="50" height="20" as="geometry"/>
                </mxCell>
                <mxCell id="24" value="" style="shape=flexArrow;endArrow=classic;html=1;fontSize=24;endWidth=25.94104308390023;endSize=18.74285714285714;width=79.52380952380952;strokeWidth=3;" parent="1" edge="1">
                    <mxGeometry width="50" height="50" relative="1" as="geometry">
                        <mxPoint x="240" y="390" as="sourcePoint"/>
                        <mxPoint x="576" y="390" as="targetPoint"/>
                    </mxGeometry>
                </mxCell>
                <mxCell id="27" value="Регенерат = 0,93÷0,97 кг" style="edgeLabel;html=1;align=center;verticalAlign=middle;resizable=0;points=[];fontSize=24;" parent="24" vertex="1" connectable="0">
                    <mxGeometry x="-0.1871" y="14" relative="1" as="geometry">
                        <mxPoint x="12" y="14" as="offset"/>
                    </mxGeometry>
                </mxCell>
                <mxCell id="29" value="&lt;span style=&quot;font-size: 24px&quot;&gt;Обогащение&lt;/span&gt;" style="text;html=1;align=center;verticalAlign=middle;resizable=0;points=[];autosize=1;strokeColor=none;fillColor=none;" parent="1" vertex="1">
                    <mxGeometry x="329" y="440" width="160" height="20" as="geometry"/>
                </mxCell>
                <mxCell id="30" value="" style="shape=flexArrow;endArrow=classic;html=1;fontSize=24;endWidth=25.94104308390023;endSize=19.323076923076922;width=61.53846153846153;strokeWidth=3;" parent="1" edge="1">
                    <mxGeometry width="50" height="50" relative="1" as="geometry">
                        <mxPoint x="350.0000000000002" y="620" as="sourcePoint"/>
                        <mxPoint x="575" y="500" as="targetPoint"/>
                    </mxGeometry>
                </mxCell>
                <mxCell id="31" value="Природный уран" style="edgeLabel;html=1;align=center;verticalAlign=middle;resizable=0;points=[];fontSize=24;rotation=-30;" parent="30" vertex="1" connectable="0">
                    <mxGeometry x="-0.1871" y="14" relative="1" as="geometry">
                        <mxPoint x="11" y="11" as="offset"/>
                    </mxGeometry>
                </mxCell>
            </root>
        </mxGraphModel>
    </diagram>
</mxfile>